<svg xmlns="http://www.w3.org/2000/svg" xml:space="preserve" id="wall-painting-service" x="0" y="0" enable-background="new 0 0 1364 960" version="1.1" viewBox="0 0 1364 960">
  <rect width="682" height="960" x="681.905" fill="#FFEBC2"></rect>
  <rect width="682" height="960" x="-.095" fill="#DAE1ED"></rect>
  <rect width="682" height="161.353" x="681.905" y="798.647" fill="#A1653A"></rect>
  <rect width="684.059" height="161.353" x="-.095" y="798.647" fill="#606E7C"></rect>
  <path fill="#FFF" d="M397.66,121.463c-8.385,0.395-14.836,7.618-14.836,16.012v18.941c0,7.13-5.78,12.91-12.91,12.91h-5.358
	c-7.13,0-12.91-5.78-12.91-12.91l0-56.749c0-8.394-6.451-15.617-14.836-16.012c-8.952-0.422-16.343,6.712-16.343,15.572v57.19
	c0,7.13-5.78,12.91-12.91,12.91h0c-7.13,0-12.91-5.78-12.91-12.91v0c0-5.72-4.637-10.357-10.357-10.357h0
	c-11.5,0-20.822,9.322-20.822,20.822v112.551c0,8.61,6.98,15.59,15.59,15.59h0c8.61,0,15.59-6.98,15.59-15.59v-0.408
	c0-7.13,5.78-12.91,12.91-12.91h0c7.13,0,12.91,5.78,12.91,12.91l0,59.196c0,8.394,6.451,15.617,14.836,16.012
	c8.952,0.422,16.343-6.712,16.343-15.572v0c0-7.356,5.963-13.319,13.319-13.319h4.542c7.356,0,13.319,5.963,13.319,13.319l0,18.533
	c0,8.394,6.451,15.617,14.836,16.012c8.952,0.422,16.343-6.712,16.343-15.572v-220.6
	C414.003,128.175,406.613,121.042,397.66,121.463z"></path>
  <polygon fill="#E5EFF9" points="681.905 56.73 681.905 507.17 664.775 507.27 654.655 507.34 629.535 507.51 626.045 507.53 623.355 507.55 549.835 508.01 539.735 508.08 524.295 508.18 518.115 508.22 426.645 508.8 419.055 508.85 417.905 508.86 417.885 508.86 417.875 506.22 417.785 485.63 417.315 375.93 417.265 360.47 417.225 352.04 417.205 346.75 416.905 277.47 416.775 247.34 416.675 221.22 416.605 205.71 416.585 200.42 415.985 58.88 415.965 56.77 415.965 56.73"></polygon>
  <rect width="6.185" height="457.409" x="412.87" y="54.093" fill="#48525B"></rect>
  <rect width="6.185" height="457.409" x="518.111" y="54.093" fill="#48525B"></rect>
  <rect width="6.185" height="457.409" x="623.352" y="54.093" fill="#48525B"></rect>
  <rect width="265.77" height="5.29" x="416.135" y="54.09" fill="#48525B"></rect>
  <rect width="265.77" height="5.29" x="416.135" y="200.42" fill="#48525B"></rect>
  <rect width="265.77" height="5.29" x="416.135" y="346.75" fill="#48525B"></rect>
  <rect width="265.77" height="5.28" x="416.135" y="506.22" fill="#48525B"></rect>
  <rect width="98.622" height="116.233" x="235.777" y="79.304" fill="#48525B" transform="rotate(6.066 284.963 137.36)"></rect>
  <rect width="88.931" height="106.772" x="240.622" y="84.035" fill="#EBF0F7" transform="rotate(6.066 284.963 137.36)"></rect>
  <polygon fill="#616F7A" points="555.655 826.116 545.547 826.116 576.006 742.089 586.114 742.089"></polygon>
  <polygon fill="#616F7A" points="681.905 742.09 681.905 749.57 679.195 742.09"></polygon>
  <rect width="140.01" height="165.11" x="541.895" y="601.57" fill="#616F7A"></rect>
  <rect width="131.3" height="55.73" x="550.605" y="607.62" fill="#48525B"></rect>
  <rect width="47.71" height="87.08" x="634.195" y="671.18" fill="#EBF0F7"></rect>
  <path fill="#CAD8EB" d="M681.905,724.73v33.53h-47.71V744.8h1.74C654.105,744.8,670.465,737.07,681.905,724.73z"></path>
  <rect width="76.627" height="87.075" x="550.601" y="671.183" fill="#EBF0F7"></rect>
  <path fill="#CAD8EB" d="M613.297,671.182v13.323c0,34.626-28.07,62.696-62.696,62.696l0,0v11.056h76.627v-87.075H613.297z"></path>
  <path fill="#48525B" d="M622.004 717.332c0 2.405-1.949 4.354-4.354 4.354-2.404 0-4.353-1.949-4.353-4.354 0-2.404 1.949-4.353 4.353-4.353C620.055 712.979 622.004 714.928 622.004 717.332zM647.257 717.332c0 2.405-1.951 4.354-4.354 4.354-2.404 0-4.354-1.949-4.354-4.354 0-2.404 1.951-4.353 4.354-4.353C645.306 712.979 647.257 714.928 647.257 717.332z"></path>
  <polygon fill="#8C9FAF" points="86.374 926.807 149.846 859.783 502.391 859.783 560.454 926.807"></polygon>
  <polygon fill="#B4C6D1" points="111.788 919.148 160.753 867.443 491.104 867.443 535.897 919.148"></polygon>
  <path fill="#8C9FAF" d="M470.811,893.295c0,9.05-63.58,16.387-142.011,16.387s-142.011-7.336-142.011-16.387
	c0-9.05,63.581-16.387,142.011-16.387S470.811,884.245,470.811,893.295z"></path>
  <path fill="#DAE1ED" d="M133.421 0c0 0-10.358 37.485-3.453 47.843 0 0 2.836 1.356 3.453 7.768s2.096-3.083 11.961 7.645c9.865 10.728 33.663 8.508 33.663 8.508s-29.224 2.589-43.897-9.371c0 0-1.11-2.713-4.562 3.453-3.453 6.165-8.015 8.467-9.001 11.92-.986 3.453-3.453-5.097-11.509 11.344 0 0-8.385-2.466-12.495 3.453 0 0-3.004-8.539 7.07-9.865 0 0 3.288-5.919 11.18-11.015s9.371-1.973 6.741-19.729c0 0 4.439-4.11 2.466-14.632S133.421 0 133.421 0zM77.436 90.118c0 0 15.29 1.726 25.894 4.192 10.604 2.466 7.892 13.071 7.892 13.071s4.932 4.932 26.881 10.358c0 0-15.783-2.466-26.141 0s-9.371-2.466-12.824 9.865l-6.165 6.905c0 0-7.152-3.206-13.317 0-6.165 3.206.986.74-10.111 13.071s-30.58 19.729-30.58 19.729 28.607-23.182 32.06-29.594c3.453-6.412 4.192-7.645 8.878-9.001 4.686-1.356 13.564.617 16.523-7.522 2.959-8.138-1.233-14.304 1.48-16.03 2.713-1.726 3.206-2.959-4.439-7.645C85.821 92.831 80.888 89.871 77.436 90.118z"></path>
  <path fill="#DAE1ED" d="M106.936 262.12c0 0-5.746-46.673-36.775-55.2 0 0-5.019 20.723-6.844 25.222l2.964-27.445-8.499.926c0 0-11.83-20.542-39.075-15.589 0 0 31.031-9.665 43.266 8.517 0 0 9.538 5.576-9.726-19.448 0 0-2.548-8.208-7.962-9.329-5.414-1.121-19.374-10.846-24.235-12.963 0 0 14.758 7.571 22.231 8.989 7.473 1.419 23.486 20.512 25.684 30.816 2.198 10.304 19.582 5.929 27.46 23.593S106.936 262.12 106.936 262.12zM504.242 517.15c0 0 9.891 1.117 16.75 2.712s5.105 8.455 5.105 8.455 3.191 3.191 17.388 6.7c0 0-10.21-1.595-16.91 0-6.7 1.595-6.062-1.595-8.295 6.381l-3.988 4.467c0 0-4.626-2.074-8.614 0-3.988 2.074.638.479-6.541 8.455-7.179 7.976-19.781 12.762-19.781 12.762s18.505-14.996 20.739-19.143 2.712-4.945 5.743-5.823c3.031-.877 8.774.399 10.688-4.866 1.914-5.264-.798-9.253.957-10.369 1.755-1.117 2.074-1.914-2.872-4.945C509.666 518.905 506.475 516.99 504.242 517.15z"></path>
  <path fill="#DAE1ED" d="M523.325,628.413c0,0-3.717-30.191-23.789-35.707c0,0-3.247,13.405-4.427,16.315l1.917-17.754l-5.498,0.599
	c0,0-7.653-13.288-25.276-10.084c0,0,20.073-6.252,27.987,5.509c0,0,6.17,3.607-6.292-12.58c0,0-1.648-5.309-5.151-6.035
	c-3.502-0.725-12.532-7.016-15.677-8.385c0,0,9.547,4.897,14.381,5.815s15.193,13.269,16.614,19.934
	c1.422,6.665,12.667,3.835,17.763,15.262C520.974,612.729,523.325,628.413,523.325,628.413z"></path>
  <rect width="92.776" height="109.344" x="98.88" y="198.393" fill="#48525B" transform="rotate(-8.922 145.277 253.126)"></rect>
  <rect width="83.278" height="99.998" x="103.629" y="203.066" fill="#EBF0F7" transform="rotate(-8.922 145.277 253.126)"></rect>
  <path fill="#E5EFF9" d="M614.754,314.268c0,0-19.451-34.305-31.829-36.78c0,0-3.006,1.061-8.046-3.095
	c-5.04-4.155,0.707,3.713-14.058,3.095c-14.765-0.619-30.238,18.037-30.238,18.037s19.098-22.811,38.195-24.756
	c0,0,2.741,1.149,0.796-5.747c-1.945-6.896-0.324-11.818-2.092-15.001c-1.768-3.183,6.13,1.179,0.118-16.386
	c0,0,7.78-4.244,6.484-11.435c0,0,8.276,3.969,2.004,12.142c0,0,1.886,6.602-0.118,15.915c-2.004,9.313-5.305,8.134,9.313,18.98
	c0,0-0.236,6.13,8.724,12.26C602.965,287.626,614.754,314.268,614.754,314.268z"></path>
  <path fill="#48525B" d="M200.645,398.5c-3.99,0-7.23,3.24-7.23,7.23c0,2.14,0.93,4.05,2.4,5.37l-3.11,13.38h-80.78l2.94-12.63
	c2.95-0.91,5.1-3.66,5.1-6.91c0-4-3.24-7.23-7.24-7.23c-3.99,0-7.23,3.23-7.23,7.23c0,2.32,1.1,4.38,2.8,5.71l-3.22,13.83
	l-1.05,4.49l-12,51.45l-1.05,4.49l-11.99,51.46l-1.05,4.48l-12,51.45l-1.05,4.5l-12,51.45l-1.04,4.49l-10.96,46.96l-1.05,4.49
	l-13.04,55.94l-1.05,4.49l-10.35,44.39h-3.21v7.46h11.79v-7.46h-1.73l10.35-44.39h81.1l-10.21,43.93l-0.59,2.55h-2.99v7.45h11.78
	v-7.45h-1.94l0.46-2h0.01l10.33-44.48l1.04-4.49l13-55.94l1.04-4.49l10.91-46.96l1.04-4.49l11.95-51.45l1.04-4.5l11.96-51.45
	l1.04-4.48l11.95-51.46l1.04-4.49l11.96-51.45l1.04-4.49l2.72-11.7c3.21-0.74,5.61-3.61,5.61-7.05
	C207.885,401.74,204.645,398.5,200.645,398.5z M114.735,760.13h-81.09l13.04-55.94h81.05L114.735,760.13z M128.775,699.7h-81.04
	l10.96-46.96h80.99L128.775,699.7z M140.725,648.25h-80.99l12-51.45h80.94L140.725,648.25z M153.715,592.3h-80.93l12-51.45h80.89
	L153.715,592.3z M166.715,536.37h-80.89l12-51.46h80.84L166.715,536.37z M179.705,480.42h-80.83l12-51.45h80.79L179.705,480.42z"></path>
  <path fill="#606E7C" d="M270.804,365.761c-1.115-2.559-3.542-4.149-6.333-4.149h-53.143c-9.709,0-17.608-7.898-17.608-17.607
	c0-9.709,7.899-17.607,17.608-17.607h8.011v-3.839h-8.011c-11.825,0-21.446,9.621-21.446,21.446
	c0,11.825,9.621,21.446,21.446,21.446h53.143c1.259,0,2.311,0.69,2.814,1.844c0.503,1.154,0.292,2.394-0.565,3.317l2.813,2.613
	C271.432,371.18,271.92,368.32,270.804,365.761z"></path>
  <path fill="#48525B" d="M273.797,746.599c1.182-0.7,2.08-1.87,2.395-3.318l-2.424-369.898c0.6-2.762-1.153-5.488-3.915-6.089
	c-2.762-0.599-5.488,1.153-6.089,3.915l2.424,369.898c-0.6,2.762,1.153,5.488,3.915,6.089
	C271.418,747.481,272.724,747.234,273.797,746.599z"></path>
  <path fill="#FFBC47" d="M218.485,334.659h91.17c3.584,0,6.489-2.905,6.489-6.489v-7.384c0-3.584-2.905-6.489-6.489-6.489h-91.17
	c-3.584,0-6.489,2.905-6.489,6.489v7.384C211.996,331.754,214.901,334.659,218.485,334.659z"></path>
  <path fill="#FFF" d="M312.481,316.001c-0.324,1.822,0.976,5.161-2.271,5.554c-2.51,0.304-2.052-3.727-4.183-3.569
	c-2.128,0.157-1.261,6.551-4.759,7.122c-3.498,0.571-4.366-8.647-6.039-8.647c-1.673,0-2.737,11.559-5.475,12.165
	c-2.737,0.609-3.498-11.862-6.845-10.641c-3.347,1.222-2.131,4.863-3.956,5.317c-1.825,0.458-2.431-5.93-5.513-6.539
	c-3.081-0.609-1.825,13.727-7.301,13.727c-5.146,0-3.652-12.025-10.267-11.864c-4.677,0.114-1.483,11.369-7.186,11.369
	c-5.362,0-4.565-12.777-7.454-12.011c-2.889,0.764,0.21,8.57-3.099,9.767c-1.725,0.625-3.137-4.295-5.114-3.689
	c-1.977,0.609-0.306,6.39-4.108,6.542c-3.801,0.152,0.303-12.168-4.259-12.62c-4.562-0.452-1.522,8.513-6.236,8.02
	c-2.271-0.239-3.288-4.835-3.935-8.98c2.111-2.045,3.968-2.922,8.512-2.733l82.119,0C307.84,314.293,309.766,314.04,312.481,316.001
	z"></path>
  <path fill="#FFBC47" d="M543.639,598.633c0.069,6.499,20.396,11.551,45.401,11.284c25.005-0.267,45.219-5.752,45.15-12.251
	c-0.069-6.499-20.396-11.552-45.401-11.285C563.784,586.648,543.569,592.134,543.639,598.633z"></path>
  <path fill="#FFBC47" d="M549.84,595.177c0.005,1.722,1.178,3.204,2.798,3.69c6.765,1.885,13.488,3.249,20.174,4.061
	c9.594,1.204,19.127,1.248,28.522,0.206c8.037-0.901,16.022-2.567,23.902-5.04c1.616-0.511,2.688-2.04,2.682-3.762
	c-0.11-9.957-4.286-18.945-10.88-25.445c-4.44-4.363-9.967-7.562-16.155-9.177c-3.045-0.752-6.214-1.197-9.513-1.157l-5.753,0.076
	c-4.691,0.054-9.169,0.968-13.24,2.691c-1.547,0.615-3.03,1.365-4.475,2.213c-8.087,4.635-14.154,12.344-16.717,21.506
	C550.277,588.263,549.812,591.669,549.84,595.177z"></path>
  <path fill="#E6A940" d="M617.039,568.888c-2.894-2.844-6.287-5.129-9.986-6.867c1.003,0.796,1.991,1.611,2.905,2.51
	c6.594,6.5,10.77,15.488,10.88,25.445c0.005,1.722-1.067,3.251-2.682,3.762c-7.88,2.473-15.865,4.139-23.902,5.04
	c-9.395,1.042-18.928,0.998-28.522-0.206c-5.247-0.637-10.517-1.626-15.811-2.928c0.198,1.513,1.251,2.784,2.719,3.225
	c6.765,1.885,13.488,3.249,20.174,4.061c9.594,1.204,19.127,1.248,28.522,0.206c8.037-0.901,16.022-2.567,23.902-5.04
	c1.616-0.511,2.688-2.04,2.682-3.762C627.809,584.376,623.633,575.388,617.039,568.888z"></path>
  <path fill="#FFCF7A" d="M551.187,585.039c1.259,0.774,2.681,1.341,4.216,1.659c7.411,1.536,14.682-3.237,16.224-10.677
	c0.972-4.69-0.578-9.299-3.722-12.487C559.817,568.168,553.75,575.878,551.187,585.039z"></path>
  <path fill="#0B2D50" d="M230.559 826.116h-16.424c-.989 0-1.791-.802-1.791-1.79v-36.428c0-.989.802-1.79 1.791-1.79h16.424c.989 0 1.79.802 1.79 1.79v36.428C232.349 825.314 231.548 826.116 230.559 826.116zM475.159 826.116h-16.424c-.989 0-1.79-.802-1.79-1.79v-36.428c0-.989.802-1.79 1.79-1.79h16.424c.989 0 1.79.802 1.79 1.79v36.428C476.949 825.314 476.148 826.116 475.159 826.116z"></path>
  <path fill="#728089" d="M481.489,618.102v110.519H195.98V618.102c0-7.263,3.447-8.877,13.131-13.144
	c85.258-35.813,169.355-36.779,252.301-2.91c2.323,0.941,4.634,1.907,6.945,2.91C477.112,609.018,481.489,610.84,481.489,618.102z"></path>
  <path fill="#616F7A" d="M468.358,604.959c-2.311-1.003-4.622-1.969-6.945-2.91c-15.046-6.144-30.13-11.135-45.251-14.986l0,0
	c0,46.474-37.794,80.824-84.149,84.149c-45.821,3.287-90.816,6.79-136.032,0v57.41h285.509V618.102
	C481.489,610.84,477.112,609.018,468.358,604.959z"></path>
  <path fill="#51616B" d="M468.358,604.959c-1.724-0.748-3.45-1.471-5.18-2.183l0,0c0,50.643-52.827,82.847-95.435,87.515
	c-62.25,6.82-118.191,10.133-171.762,4.182v34.149h285.509V618.102C481.489,610.84,477.112,609.018,468.358,604.959z"></path>
  <path fill="#48525B" d="M466.947,754.083H212.345v-35.758c0-2.348,1.903-4.251,4.25-4.251c81.978-9.999,164.015-9.343,246.101,0
	c2.348,0,4.251,1.903,4.251,4.251V754.083z"></path>
  <path fill="#616F7A" d="M454.848,677.142l-8.222,45.998c-2.638,14.762-15.462,25.518-30.457,25.547l-156,0.306
	c-15.288,0.03-28.315-11.09-30.687-26.193l-7.081-45.097c-3.162-20.139-24.695-32.075-43.202-23.526
	c-4.465,2.062-7.294,4.779-6.826,8.065l10.996,80.706c0.081,0.597,0.14,1.198,0.187,1.799c3.148,40.375,38.628,72.208,81.955,72.208
	h70.487h7.262h70.487c43.327,0,78.806-31.833,81.955-72.208c0.047-0.601,0.106-1.202,0.187-1.799l10.996-80.707
	c0.003-3.895-13.721-5.282-26.545-5.727C467.899,656.083,457.039,664.886,454.848,677.142z"></path>
  <path fill="#E6E6E6" d="m495.06 657.581-10.552 77.448c-.081.597-.14 1.198-.187 1.799-3.149 40.375-38.628 72.207-81.955 72.207h-70.487-7.263-70.487c-15.607 0-30.196-4.131-42.623-11.304 14.442 11.969 33.328 19.223 54.006 19.223h70.487 7.262 70.487c43.327 0 78.806-31.834 81.955-72.208.047-.601.106-1.202.187-1.799l10.996-80.707C506.889 659.886 501.866 658.449 495.06 657.581zM211.019 669.785l7.081 45.097c1.737 11.06 9.191 19.977 19.06 23.951-3.957-4.353-6.708-9.859-7.677-16.032l-7.081-45.097c-1.788-11.391-9.456-20.154-19.127-24.073C207.224 657.955 210.027 663.465 211.019 669.785z"></path>
  <path fill="#48525B" d="m126.29 830.323 7.821.02c.571.001 1.034-.46 1.036-1.031l.009-3.611c.001-.571-.46-1.034-1.031-1.036l-7.82-.02L126.29 830.323zM71.953 830.182l-7.82-.02c-.571-.001-1.032-.465-1.031-1.036l.009-3.611c.001-.571.465-1.032 1.036-1.031l7.82.02L71.953 830.182z"></path>
  <path fill="#E6E6E6" d="M67.598,815.745l0.372,5.016l0.35,4.717l4.418,59.532c5.257,2.214,14.245,5.224,25.757,5.341
	c12.023,0.117,21.418-2.989,26.755-5.205l4.733-59.508l0.374-4.715l0.398-5.014c-5.244-4.839-18.714-7.436-31.559-7.47
	C86.35,808.406,72.867,810.933,67.598,815.745z"></path>
  <path fill="#FFB857" d="M131.314,820.92l-0.309,3.825l-0.82,10.395h-0.012l-4.384,55.229c-0.189,2.377-2.033,4.282-4.4,4.573
	c-15.322,1.882-29.921,2.24-43.458,0.359c-3.191-0.444-5.621-3.091-5.859-6.304l-4.778-64.406l-0.273-3.837h0.95l2.091,0.012
	c0.511,0.855,2.34,2.471,7.235,4.039c5.786,1.853,13.543,2.887,21.847,2.911s16.061-0.974,21.871-2.804
	c4.906-1.533,6.736-3.148,7.246-3.992H131.314z"></path>
  <path fill="#E6E6E6" d="M131.314,820.92l-0.309,3.825l-0.82,10.395h-0.012c-0.309,0.143-0.63,0.285-0.986,0.416
	c-0.689,0.285-1.473,0.57-2.364,0.843c-5.797,1.829-13.566,2.827-21.858,2.804c-8.304-0.024-16.061-1.057-21.859-2.911
	c-0.047-0.024-0.095-0.036-0.142-0.047c-4.811-1.556-9.67,2.233-9.302,7.27l3.196,43.064l0.962,8.706h0
	c-3.136-0.514-5.511-3.11-5.746-6.279l-4.779-64.415l-0.273-3.837h0.95l2.091,0.012c0.511,0.855,2.34,2.471,7.235,4.039
	c5.786,1.853,13.543,2.887,21.847,2.911s16.061-0.974,21.871-2.804c4.906-1.533,6.736-3.148,7.246-3.992H131.314z"></path>
  <path fill="#FFF" d="M124.915,823.4c-0.15,0.07-0.3,0.14-0.45,0.21c-0.16,0.07-0.32,0.14-0.48,0.21
	c-0.17,0.08-0.34,0.15-0.52,0.22c0.18-0.07,0.35-0.14,0.52-0.21c0.05-0.03,0.11-0.05,0.16-0.07c0.11-0.05,0.21-0.1,0.32-0.14
	c0.1-0.05,0.2-0.1,0.3-0.14c0.05-0.03,0.1-0.05,0.15-0.07c0.14-0.07,0.28-0.14,0.41-0.21l0.39-0.21
	C125.465,823.12,125.195,823.26,124.915,823.4z M99.175,827.33c-8.3-0.02-16.09-0.67-21.88-2.53c5.79,1.86,13.55,2.89,21.85,2.92
	c8.3,0.021,16.06-0.979,21.87-2.81C115.215,826.74,107.475,827.35,99.175,827.33z M70.725,821.54c0.16,0.15,0.34,0.3,0.56,0.47
	C71.065,821.84,70.885,821.68,70.725,821.54z M125.325,823.2l0.39-0.21c-0.25,0.13-0.52,0.27-0.8,0.41
	C125.055,823.34,125.195,823.27,125.325,823.2z M124.765,823.48c0.05-0.03,0.1-0.05,0.15-0.07v-0.01c-0.15,0.07-0.3,0.14-0.45,0.21
	C124.565,823.57,124.665,823.52,124.765,823.48z M124.145,823.76c0.11-0.05,0.21-0.1,0.32-0.14v-0.01
	c-0.16,0.07-0.32,0.14-0.48,0.21C124.045,823.8,124.095,823.78,124.145,823.76z M123.985,823.83v-0.01
	c-0.17,0.08-0.34,0.15-0.52,0.22C123.645,823.97,123.815,823.9,123.985,823.83z M77.295,824.8c5.79,1.86,13.55,2.89,21.85,2.92
	c8.3,0.021,16.06-0.979,21.87-2.81c-5.8,1.83-13.54,2.44-21.84,2.42S83.085,826.66,77.295,824.8z M71.285,822.01
	c-0.22-0.17-0.4-0.33-0.56-0.47C70.885,821.69,71.065,821.84,71.285,822.01z M130.755,815.91c-0.23-0.21-0.47-0.42-0.73-0.62
	c-0.26-0.2-0.52-0.39-0.81-0.59c-0.46-0.31-0.96-0.61-1.49-0.89c-0.23-0.13-0.46-0.25-0.69-0.36c-0.26-0.14-0.53-0.27-0.81-0.39
	c-0.34-0.16-0.7-0.31-1.06-0.46c-0.27-0.11-0.53-0.22-0.81-0.32c-0.21-0.08-0.43-0.16-0.66-0.24c-0.29-0.11-0.6-0.21-0.9-0.31
	c-0.02-0.01-0.05-0.02-0.07-0.03c-0.29-0.09-0.58-0.19-0.87-0.27c-0.32-0.1-0.64-0.2-0.97-0.29c-0.33-0.09-0.66-0.18-1-0.27
	c-0.49-0.13-0.99-0.25-1.5-0.37c-0.38-0.09-0.78-0.18-1.17-0.26c-0.26-0.06-0.52-0.11-0.78-0.16c-0.25-0.06-0.5-0.1-0.76-0.15
	c-0.27-0.05-0.54-0.1-0.81-0.15c-0.14-0.02-0.29-0.05-0.44-0.07c-0.6-0.1-1.21-0.2-1.82-0.29c-0.48-0.07-0.96-0.14-1.45-0.21
	c-0.1-0.01-0.21-0.03-0.31-0.04c-0.21-0.02-0.42-0.05-0.63-0.07h-0.01c-0.45-0.06-0.89-0.11-1.34-0.15
	c-0.81-0.09-1.62-0.16-2.43-0.22c-0.47-0.04-0.94-0.07-1.42-0.1c-0.51-0.03-1.02-0.06-1.53-0.08c-0.62-0.03-1.25-0.06-1.87-0.07
	c-0.35-0.01-0.7-0.02-1.04-0.03c-0.46,0-0.92-0.01-1.38-0.01c-0.65,0-1.3,0-1.95,0.02c-0.49,0.01-0.98,0.02-1.47,0.04h-0.15
	c-0.11,0-0.23,0.01-0.34,0.01c-0.37,0.01-0.75,0.03-1.12,0.05c-1.34,0.06-2.66,0.16-3.98,0.28c-1.84,0.16-3.64,0.38-5.38,0.65
	c-0.37,0.06-0.74,0.12-1.11,0.18c-0.37,0.06-0.74,0.13-1.1,0.2c-0.64,0.11-1.26,0.24-1.87,0.37c-0.57,0.13-1.12,0.25-1.67,0.39
	c-0.42,0.1-0.83,0.21-1.24,0.32c-0.41,0.11-0.81,0.22-1.2,0.34c-0.18,0.05-0.37,0.11-0.55,0.17c-0.19,0.05-0.37,0.11-0.54,0.17
	c-0.12,0.03-0.24,0.07-0.35,0.11c-0.19,0.06-0.37,0.12-0.55,0.19c-0.04,0.01-0.07,0.02-0.1,0.03c-0.28,0.1-0.55,0.2-0.82,0.31
	c-0.06,0.02-0.13,0.05-0.19,0.07c-0.49,0.19-0.96,0.39-1.41,0.6c-0.26,0.11-0.51,0.23-0.76,0.36c-0.5,0.24-0.98,0.49-1.42,0.76
	c-0.17,0.1-0.33,0.2-0.48,0.29c-0.29,0.19-0.57,0.38-0.84,0.58c-0.17,0.12-0.34,0.25-0.5,0.38c-0.18,0.14-0.35,0.28-0.51,0.43
	c-1.47,1.34-2.3,2.86-2.3,4.55c0,1.54,0.69,2.94,1.92,4.2c0.02,0.03,0.05,0.06,0.08,0.09c0.31,0.31,0.65,0.61,1.02,0.9
	c1,0.78,2.23,1.5,3.64,2.16c5.03,2.31,12.34,3.8,20.01,4.39c1.62,0.12,3.25,0.21,4.88,0.25h0.04c0.12,0,0.24,0.01,0.35,0.01
	c0,0,0.01,0,0.02,0c0.63,0.01,1.26,0.02,1.88,0.02c10.09,0.02,20.57-1.53,27.16-4.52c1.43-0.65,2.67-1.37,3.69-2.15
	c0.05-0.04,0.11-0.09,0.16-0.13c0.31-0.25,0.6-0.5,0.86-0.76c0.03-0.03,0.06-0.06,0.08-0.09c1.25-1.26,1.95-2.66,1.95-4.2
	C133.035,818.77,132.215,817.26,130.755,815.91z M76.935,815.95c0.13-0.04,0.26-0.08,0.38-0.12c0.53-0.16,1.08-0.33,1.64-0.48
	c5.59-1.52,12.69-2.34,20.23-2.32c0.24,0,0.48,0,0.72,0.01c4.14,0.04,8.13,0.33,11.78,0.85c0.27,0.03,0.53,0.07,0.79,0.11
	c1.17,0.18,2.28,0.38,3.37,0.6c0.07,0.02,0.14,0.03,0.21,0.05c1.72,0.36,3.35,0.77,4.84,1.25c0.05,0.02,0.09,0.03,0.14,0.05
	c6.05,1.94,7.41,3.94,7.4,4.5c0,0.1-0.05,0.27-0.17,0.47c-0.02,0.03-0.04,0.06-0.07,0.1c-0.02,0.04-0.05,0.08-0.08,0.11
	c-0.03,0.05-0.07,0.1-0.12,0.15c-0.05,0.06-0.11,0.12-0.17,0.19c-0.13,0.13-0.3,0.28-0.49,0.44c-0.19,0.15-0.4,0.32-0.65,0.49
	c-0.19,0.12-0.39,0.25-0.62,0.39c-0.11,0.06-0.23,0.13-0.35,0.2c-0.25,0.13-0.52,0.27-0.8,0.41c-0.15,0.07-0.3,0.14-0.45,0.21
	c-0.16,0.07-0.32,0.14-0.48,0.21c-0.17,0.08-0.34,0.15-0.52,0.22c-0.24,0.1-0.49,0.19-0.75,0.29s-0.53,0.19-0.82,0.29
	c-0.28,0.1-0.58,0.19-0.88,0.29c-5.8,1.83-13.54,2.44-21.84,2.42s-16.09-0.67-21.88-2.53c-0.61-0.2-1.18-0.39-1.7-0.59
	c-0.23-0.09-0.46-0.17-0.67-0.26c-1.22-0.5-2.17-0.98-2.89-1.43c-0.11-0.06-0.21-0.13-0.31-0.2c-0.03-0.02-0.06-0.04-0.09-0.06
	c-0.12-0.08-0.24-0.17-0.35-0.25c-0.22-0.17-0.4-0.33-0.56-0.47c-0.32-0.3-0.53-0.56-0.66-0.77v-0.01c-0.12-0.2-0.18-0.36-0.18-0.46
	C69.895,819.75,71.205,817.83,76.935,815.95z M70.725,821.54c0.16,0.15,0.34,0.3,0.56,0.47
	C71.065,821.84,70.885,821.68,70.725,821.54z M99.175,827.33c-8.3-0.02-16.09-0.67-21.88-2.53c5.79,1.86,13.55,2.89,21.85,2.92
	c8.3,0.021,16.06-0.979,21.87-2.81C115.215,826.74,107.475,827.35,99.175,827.33z M124.915,823.4c-0.15,0.07-0.3,0.14-0.45,0.21
	c-0.16,0.07-0.32,0.14-0.48,0.21c-0.17,0.08-0.34,0.15-0.52,0.22c0.18-0.07,0.35-0.14,0.52-0.21c0.05-0.03,0.11-0.05,0.16-0.07
	c0.11-0.05,0.21-0.1,0.32-0.14c0.1-0.05,0.2-0.1,0.3-0.14c0.05-0.03,0.1-0.05,0.15-0.07c0.14-0.07,0.28-0.14,0.41-0.21l0.39-0.21
	C125.465,823.12,125.195,823.26,124.915,823.4z"></path>
  <path fill="#FFF" d="M67.3,824.584c0,0-0.369,12.236,3.363,12.595c2.529,0.243,2.348-4.872,4.106-4.866
	c1.759,0.005,0.125,17.084,4.804,17.45c3.982,0.312,3.564-10.459,6.063-11.04c2.499-0.581,2.084,6.771,4.641,6.887
	c2.557,0.116,2.323-12.974,6.569-13.33s3.259,13.88,6.745,13.764s4.3-8.6,6.973-10.227c2.673-1.627,3.603,7.205,5.927,6.624
	c2.324-0.581,3.951-8.948,6.624-9.413s-0.182,19.152,2.937,18.224c3.119-0.928,4.957-26.503,4.957-26.503
	C109.638,830.264,88.409,829.957,67.3,824.584z"></path>
  <path fill="#48525B" d="M99.163,870.058c0.007,0,0.011,0,0.018,0c13.638,0.029,24.1-7.506,30.253-21.79
	c4.576-10.62,5.147-21.078,5.169-21.517l-2.715-0.152c-0.005,0.103-0.577,10.421-4.959,20.551
	c-5.763,13.321-15.097,20.063-27.742,20.036c-0.005,0-0.012,0-0.017,0c-12.685-0.033-22.041-6.821-27.808-20.175
	c-4.386-10.157-4.949-20.484-4.954-20.588l-2.715,0.151c0.021,0.441,0.584,10.908,5.164,21.555
	C75.011,862.439,85.492,870.023,99.163,870.058z"></path>
  <path fill="#FFF" d="m91.188 870.632 12.858.034c.555.001 1.007-.448 1.008-1.003l.009-3.514c.001-.555-.448-1.007-1.003-1.008l-12.857-.033c-.555-.001-1.007.448-1.008 1.003l-.009 3.514C90.183 870.179 90.632 870.63 91.188 870.632zM75.915 913.1c-9.183.141-43.868-2.326-35.429 9.407 8.438 11.733 46.023 5.974 42.444 13.987-3.58 8.013 53.56 13.254 58.996 0 5.436-13.254 85.897 13.533 80.606-10.32-1.249-5.631-34.389-2.984-48.451-6.808-7.68-2.089-4.168-3.4 6.008-8.431 12.891-6.372-23.8-10.862-59.565.872C111 914.932 88.257 912.91 75.915 913.1z"></path>
  <ellipse cx="157.671" cy="941.106" fill="#FFF" rx="11.473" ry="4.272"></ellipse>
  <ellipse cx="39.174" cy="897.215" fill="#FFF" rx="11.473" ry="4.272"></ellipse>
  <rect width="682" height="960" x="-.095" fill="none"></rect>
  <polygon fill="#D5E5F7" points="1364.095 200.42 1363.905 200.64 1363.905 507.17 1346.775 507.27 1336.655 507.34 1311.535 507.51 1308.045 507.53 1305.355 507.55 1231.835 508.01 1221.735 508.08 1206.295 508.18 1200.115 508.22 1108.645 508.8 1101.055 508.85 1099.905 508.86 1099.885 508.86 1099.885 508.84 1099.875 506.22 1099.785 485.63 1099.765 481.97 1099.315 375.93 1099.305 372.27 1099.265 360.47 1099.225 352.04 1099.205 346.75 1098.905 277.47 1098.885 273.8 1098.775 247.34 1098.765 243.67 1098.675 221.22 1098.655 217.55 1098.605 205.71 1098.585 200.42 1097.985 58.88 1097.965 56.77 1097.965 56.73 1363.905 56.73 1363.905 200.42"></polygon>
  <polygon fill="#E3EDF7" points="1255.447 56.734 1095.684 247.336 1095.589 221.221 1233.432 56.734"></polygon>
  <polygon fill="#E3EDF7" points="1364.095 200.42 1363.905 200.64 1359.655 205.71 1311.535 263.13 1305.355 270.5 1241.445 346.75 1237.015 352.04 1206.295 388.69 1200.115 396.06 1107.785 506.22 1105.625 508.8 1101.055 508.83 1099.885 508.84 1098.135 508.85 1096.825 508.86 1096.805 508.86 1096.705 485.63 1099.765 481.97 1101.055 480.44 1200.115 362.25 1206.295 354.88 1208.675 352.04 1213.105 346.75 1305.355 236.69 1311.535 229.31 1331.315 205.71 1335.755 200.42 1363.905 166.83 1363.905 200.42"></polygon>
  <polygon fill="#E3EDF7" points="1363.76 56.734 1096.234 375.934 1096.177 360.467 1095.816 277.474 1280.822 56.734"></polygon>
  <polygon fill="#E3EDF7" points="1363.905 439.04 1363.905 507.16 1345.525 507.27 1335.325 507.34 1311.535 507.5 1306.505 507.53 1307.605 506.22 1311.535 501.53"></polygon>
  <rect width="6.185" height="457.409" x="1094.87" y="54.093" fill="#385E8C"></rect>
  <rect width="6.185" height="457.409" x="1200.111" y="54.093" fill="#385E8C"></rect>
  <rect width="6.185" height="457.409" x="1305.352" y="54.093" fill="#385E8C"></rect>
  <rect width="265.77" height="5.29" x="1098.135" y="54.09" fill="#385E8C"></rect>
  <polygon fill="#385E8C" points="1364.095 200.42 1363.905 200.64 1363.905 205.71 1098.135 205.71 1098.135 200.42"></polygon>
  <rect width="265.77" height="5.29" x="1098.135" y="346.75" fill="#385E8C"></rect>
  <rect width="265.77" height="5.28" x="1098.135" y="506.22" fill="#385E8C"></rect>
  <rect width="98.622" height="116.233" x="936.789" y="88.697" fill="#385E8C"></rect>
  <rect width="88.931" height="106.772" x="941.635" y="93.428" fill="#FFF"></rect>
  <circle cx="964.078" cy="116.168" r="14.025" fill="#AFD9EB" transform="rotate(-45.001 964.08 116.18)"></circle>
  <circle cx="1015.401" cy="173.348" r="10.48" fill="#AFD9EB"></circle>
  <path fill="#F49E5D" d="M995.981 181.67c0 2.724-2.208 4.932-4.932 4.932-2.724 0-4.932-2.208-4.932-4.932 0-2.724 2.208-4.932 4.932-4.932C993.773 176.739 995.981 178.947 995.981 181.67zM1008.927 138.67c.95 17.199-40.974 35.071-45.62 29.437-1.357-1.646 4.952-10.909 17.57-29.437 7.094-10.417 9.893-13.848 14.025-14.025C1001.202 124.375 1008.545 131.756 1008.927 138.67z"></path>
  <rect width="92.776" height="109.344" x="770.944" y="173.216" fill="#385E8C"></rect>
  <rect width="83.278" height="99.998" x="775.693" y="177.888" fill="#FFF"></rect>
  <path fill="#AFD9EB" d="M821.474,211.757c0,9.019-7.206,16.33-16.094,16.33c-8.888,0-16.094-7.312-16.094-16.33
	c0-9.019,7.205-16.331,16.094-16.331C814.268,195.426,821.474,202.738,821.474,211.757z"></path>
  <path fill="#F49E5D" d="M834.728,232.584c0,7.189-5.828,13.017-13.017,13.017c-7.189,0-13.017-5.828-13.017-13.017
	c0-7.189,5.828-13.017,13.017-13.017C828.9,219.567,834.728,225.395,834.728,232.584z"></path>
  <circle cx="835.674" cy="248.915" r="10.887" fill="#AFD9EB"></circle>
  <rect width="2.347" height="109.701" x="809.865" y="494.321" fill="#0B2D50"></rect>
  <rect width="7.215" height="333.94" x="778.845" y="468.002" fill="#0B2D50"></rect>
  <path fill="#F49E5D" d="M866.15,498.192l-0.046-0.069c0.006-0.051,0.013-0.102,0.019-0.154L866,497.969
	c-17.106-30.706-37.633-59.344-58.161-86.347c-13.848-2.934-36.109-2.545-50.164,0c-18.838,21.729-38.667,51.687-58.16,86.347
	l-0.121-0.001c0.005,0.052,0.012,0.103,0.018,0.154l-0.047,0.069h0.054c0.651,5.756,5.075,10.212,10.441,10.212
	c5.296,0,9.676-4.34,10.414-9.989c0.738,5.649,5.118,9.989,10.414,9.989c5.296,0,9.676-4.34,10.414-9.989
	c0.737,5.649,5.117,9.989,10.414,9.989c5.296,0,9.676-4.34,10.414-9.989c0.738,5.649,5.118,9.989,10.414,9.989
	c5.297,0,9.677-4.34,10.414-9.989c0.738,5.649,5.118,9.989,10.414,9.989c5.296,0,9.676-4.34,10.414-9.989
	c0.737,5.649,5.118,9.989,10.414,9.989c5.295,0,9.676-4.34,10.414-9.989c0.738,5.649,5.117,9.989,10.414,9.989
	c5.296,0,9.676-4.34,10.414-9.989c0.737,5.649,5.117,9.989,10.414,9.989c5.366,0,9.79-4.456,10.44-10.212H866.15z"></path>
  <path fill="#0B2D50" d="M808.021 604.587c0-1.667 1.351-3.018 3.018-3.018 1.667 0 3.018 1.351 3.018 3.018 0 1.666-1.351 3.017-3.018 3.017C809.372 607.604 808.021 606.254 808.021 604.587zM807.767 822.227h-50.628l0 0c0-13.98 11.333-25.314 25.314-25.314l0 0C796.433 796.913 807.767 808.246 807.767 822.227L807.767 822.227zM892.967 826.116h-16.424c-.989 0-1.79-.802-1.79-1.79v-36.428c0-.989.802-1.79 1.79-1.79h16.424c.989 0 1.791.802 1.791 1.79v36.428C894.758 825.314 893.956 826.116 892.967 826.116zM1137.567 826.116h-16.424c-.989 0-1.791-.802-1.791-1.79v-36.428c0-.989.802-1.79 1.791-1.79h16.424c.989 0 1.79.802 1.79 1.79v36.428C1139.358 825.314 1138.556 826.116 1137.567 826.116z"></path>
  <path fill="#508CD3" d="M1143.898,618.102v110.519H858.389V618.102c0-7.263,3.448-8.877,13.131-13.144
	c85.258-35.813,169.355-36.779,252.301-2.91c2.323,0.941,4.634,1.907,6.945,2.91C1139.521,609.018,1143.898,610.84,1143.898,618.102
	z"></path>
  <path fill="#3E75C6" d="M1130.766,604.959c-2.311-1.003-4.622-1.969-6.945-2.91c-15.046-6.144-30.13-11.135-45.251-14.986l0,0
	c0,46.474-37.794,80.824-84.149,84.149c-45.821,3.287-90.816,6.79-136.032,0v57.41h285.509V618.102
	C1143.898,610.84,1139.521,609.018,1130.766,604.959z"></path>
  <path fill="#306EB7" d="M1130.766,604.959c-1.724-0.748-3.45-1.471-5.18-2.183l0,0c0,50.643-52.827,82.847-95.435,87.515
	c-62.25,6.82-118.191,10.133-171.762,4.182v34.149h285.509V618.102C1143.898,610.84,1139.521,609.018,1130.766,604.959z"></path>
  <path fill="#255793" d="M1129.355,754.083H874.753v-35.758c0-2.348,1.903-4.251,4.25-4.251c81.978-9.999,164.015-9.343,246.101,0
	c2.348,0,4.251,1.903,4.251,4.251V754.083z"></path>
  <path fill="#3E75C6" d="M1117.257,677.142l-8.222,45.998c-2.638,14.762-15.462,25.518-30.457,25.547l-156,0.306
	c-15.288,0.03-28.315-11.09-30.687-26.193l-7.081-45.097c-3.162-20.139-24.695-32.075-43.202-23.526
	c-4.465,2.062-7.294,4.779-6.826,8.065l10.996,80.706c0.081,0.597,0.14,1.198,0.187,1.799c3.148,40.375,38.628,72.208,81.955,72.208
	h70.487h7.262h70.487c43.327,0,78.806-31.833,81.955-72.208c0.047-0.601,0.106-1.202,0.187-1.799l10.996-80.707
	c0.003-3.895-13.721-5.282-26.545-5.727C1130.308,656.083,1119.448,664.886,1117.257,677.142z"></path>
  <path fill="#E6E6E6" d="m1157.469 657.581-10.552 77.448c-.081.597-.14 1.198-.187 1.799-3.149 40.375-38.628 72.207-81.955 72.207h-70.487-7.263-70.487c-15.607 0-30.196-4.131-42.623-11.304 14.442 11.969 33.328 19.223 54.006 19.223h70.487 7.262 70.487c43.327 0 78.806-31.834 81.955-72.208.047-.601.106-1.202.187-1.799l10.996-80.707C1169.298 659.886 1164.275 658.449 1157.469 657.581zM873.428 669.785l7.081 45.097c1.737 11.06 9.191 19.977 19.06 23.951-3.957-4.353-6.708-9.859-7.677-16.032l-7.081-45.097c-1.788-11.391-9.456-20.154-19.127-24.073C869.633 657.955 872.435 663.465 873.428 669.785z"></path>
  <polygon fill="#3E75C6" points="1216.449 826.116 1206.34 826.116 1236.8 742.089 1246.908 742.089"></polygon>
  <polygon fill="#3E75C6" points="1363.905 780.19 1363.905 808.05 1348.905 766.68 1345.855 758.26 1339.995 742.09 1350.095 742.09 1355.955 758.26 1359.005 766.68"></polygon>
  <rect width="161.21" height="165.11" x="1202.695" y="601.57" fill="#3E75C6"></rect>
  <rect width="152.51" height="55.73" x="1211.395" y="607.62" fill="#1A4179"></rect>
  <rect width="68.92" height="87.08" x="1294.985" y="671.18" fill="#FFF"></rect>
  <path fill="#CAD8EB" d="M1363.905,671.18v87.08h-68.92V744.8h1.74c34.63,0,62.7-28.07,62.7-62.7v-10.92H1363.905z"></path>
  <rect width="76.627" height="87.075" x="1211.394" y="671.183" fill="#FFF"></rect>
  <path fill="#CAD8EB" d="M1274.09,671.182v13.323c0,34.626-28.07,62.696-62.696,62.696l0,0v11.056h76.627v-87.075H1274.09z"></path>
  <path fill="#1A4179" d="M1282.797 717.332c0 2.405-1.949 4.354-4.354 4.354-2.404 0-4.353-1.949-4.353-4.354 0-2.404 1.949-4.353 4.353-4.353C1280.848 712.979 1282.797 714.928 1282.797 717.332zM1308.05 717.332c0 2.405-1.951 4.354-4.354 4.354-2.404 0-4.354-1.949-4.354-4.354 0-2.404 1.951-4.353 4.354-4.353C1306.099 712.979 1308.05 714.928 1308.05 717.332z"></path>
  <path fill="#6B9459" d="M1330.394,544.924c-0.617,3.491-2.861,6.465-5.243,9.099c-3.302,3.655-7.069,6.994-11.48,9.187
	c-3.226,1.601-6.831,2.546-10.409,2.52c-1.512,8.065-3.529,17.252-6.163,25.04l-4.688-0.214l-8.015-0.353
	c-6.062-11.19-9.313-23.855-9.527-36.571c-5.835,0.907-12.073,0.189-16.294-3.793c-3.327-3.125-4.814-7.738-5.558-12.249
	c-0.29-1.815-0.491-3.705,0.025-5.482c0.504-1.777,1.865-3.403,3.68-3.743c2.659-0.491,4.953,1.79,6.692,3.869
	c1.815,2.168,3.642,4.348,5.469,6.515c1.789,2.142,3.932,4.398,6.389,5.507c0.113-0.996,0.227-2.004,0.378-2.999
	c0.63-4.423,1.714-8.96,4.448-12.501c2.092-2.734,5.394-4.738,8.771-4.915c0.995-0.063,2.004,0.038,2.987,0.328
	c3.541,1.046,6.036,4.221,7.788,7.485c4.02,7.498,5.268,16.193,4.789,24.738c3.793-2.47,6.402-6.931,8.569-11.102
	c1.373-2.634,2.785-5.318,4.99-7.296c2.218-1.966,5.457-3.075,8.217-1.978C1329.499,537.338,1330.999,541.421,1330.394,544.924z"></path>
  <path fill="#578045" d="M1330.394,544.924c-0.617,3.491-2.861,6.465-5.243,9.099c-3.302,3.655-7.069,6.994-11.48,9.187
	c-3.226,1.601-6.831,2.546-10.409,2.52c-1.512,8.065-3.529,17.252-6.163,25.04l-4.688-0.214
	c-12.084-21.033,4.544-53.906-3.541-66.714c0.995-0.063,2.004,0.038,2.987,0.328c3.541,1.046,6.036,4.221,7.788,7.485
	c4.02,7.498,5.268,16.193,4.789,24.738c3.793-2.47,6.402-6.931,8.569-11.102c1.373-2.634,2.785-5.318,4.99-7.296
	c2.218-1.966,5.457-3.075,8.217-1.978C1329.499,537.338,1330.999,541.421,1330.394,544.924z"></path>
  <rect width="24.648" height="24.648" x="1277.502" y="576.922" fill="#F49E5D"></rect>
  <rect width="24.648" height="8.401" x="1277.502" y="578.015" fill="#CCC"></rect>
  <rect width="27.911" height="4.851" x="1275.753" y="576.572" fill="#F49E5D"></rect>
  <path fill="#8DB57C" d="M1297.265,573.66c-1.23,0-1.24,1.92,0,1.92C1298.495,575.58,1298.495,573.66,1297.265,573.66z
	 M1281.285,573.1c-0.04-0.12-0.1-0.22-0.2-0.31c-0.06-0.05-0.13-0.09-0.19-0.14c-0.15-0.09-0.31-0.14-0.49-0.14
	c-0.08,0.02-0.17,0.03-0.25,0.04c-0.16,0.04-0.3,0.13-0.42,0.24c-0.06,0.06-0.11,0.11-0.17,0.17c-0.09,0.09-0.16,0.19-0.19,0.31
	c-0.07,0.11-0.09,0.23-0.09,0.37c0,0.13,0.02,0.25,0.09,0.37c0.03,0.11,0.1,0.22,0.19,0.3c0.07,0.05,0.13,0.1,0.2,0.15
	c0.15,0.09,0.31,0.13,0.48,0.13c0.09-0.01,0.17-0.02,0.26-0.03c0.16-0.05,0.3-0.13,0.42-0.25c0.05-0.05,0.11-0.11,0.16-0.16
	c0.1-0.09,0.16-0.19,0.2-0.31c0.06-0.11,0.09-0.24,0.08-0.37C1281.375,573.34,1281.345,573.22,1281.285,573.1z M1289.835,572.02
	h-0.1c-1.23,0-1.23,1.92,0,1.92h0.1C1291.075,573.94,1291.075,572.02,1289.835,572.02z M1316.355,549.33
	c-0.05-0.16-0.13-0.31-0.25-0.43c-0.07-0.05-0.13-0.1-0.19-0.15c-0.15-0.08-0.32-0.13-0.49-0.13h-0.33c-0.13,0-0.25,0.03-0.36,0.09
	c-0.12,0.03-0.23,0.1-0.31,0.19c-0.1,0.09-0.16,0.19-0.2,0.31c-0.06,0.12-0.09,0.24-0.08,0.37c0.01,0.09,0.02,0.17,0.03,0.26
	c0.05,0.16,0.13,0.3,0.25,0.42c0.06,0.05,0.13,0.1,0.19,0.15c0.15,0.09,0.31,0.13,0.48,0.13h0.33c0.13,0.01,0.26-0.02,0.37-0.08
	c0.12-0.04,0.22-0.11,0.31-0.2s0.16-0.19,0.2-0.31c0.06-0.11,0.09-0.24,0.08-0.37C1316.375,549.5,1316.365,549.41,1316.355,549.33z
	 M1327.595,546.59c-0.04-0.11-0.11-0.22-0.2-0.3c-0.09-0.1-0.19-0.16-0.31-0.2c-0.11-0.06-0.24-0.09-0.37-0.08
	c-0.08,0.01-0.17,0.02-0.25,0.03c-0.16,0.05-0.31,0.13-0.43,0.25c-0.05,0.06-0.1,0.13-0.15,0.19c-0.03,0.06-0.03,0.13-0.05,0.2
	l-0.03,0.03c-0.09,0.09-0.15,0.2-0.18,0.33c-0.04,0.12-0.04,0.25-0.01,0.38c0,0.13,0.04,0.24,0.11,0.36
	c0.05,0.06,0.1,0.12,0.15,0.19c0.12,0.12,0.26,0.2,0.42,0.25c0.09,0.01,0.17,0.02,0.26,0.03c0.17,0,0.33-0.04,0.48-0.13
	c0.08-0.06,0.16-0.12,0.23-0.18c0.01-0.01,0.03-0.02,0.04-0.04c0.03-0.03,0.06-0.08,0.09-0.11c0.02-0.04,0.06-0.08,0.08-0.12
	c0.01-0.01,0.02-0.02,0.03-0.04c0-0.01,0.01-0.01,0.01-0.02c0.04-0.08,0.07-0.16,0.1-0.25c0.01-0.01,0.01-0.03,0.02-0.04
	c0.02-0.1,0.03-0.2,0.04-0.3v-0.06C1327.685,546.83,1327.655,546.71,1327.595,546.59z M1323.335,542.18
	c-0.03-0.12-0.1-0.22-0.19-0.31c-0.09-0.1-0.19-0.16-0.31-0.2c-0.12-0.06-0.24-0.09-0.37-0.08c-0.09,0.01-0.17,0.02-0.26,0.03
	c-0.16,0.05-0.3,0.13-0.42,0.25c-0.05,0.06-0.1,0.13-0.15,0.19c-0.09,0.15-0.13,0.31-0.13,0.49v0.32c-0.01,0.14,0.02,0.26,0.08,0.37
	c0.04,0.12,0.11,0.22,0.2,0.31c0.09,0.09,0.19,0.16,0.31,0.2c0.11,0.06,0.24,0.09,0.37,0.08c0.08-0.01,0.17-0.02,0.25-0.03
	c0.17-0.05,0.31-0.13,0.43-0.25c0.05-0.06,0.1-0.13,0.15-0.19c0.08-0.15,0.13-0.31,0.13-0.49v-0.32
	C1323.425,542.41,1323.395,542.29,1323.335,542.18z M1314.895,559.6c-0.01-0.13-0.04-0.25-0.11-0.36c-0.06-0.11-0.15-0.2-0.25-0.27
	c-0.09-0.08-0.2-0.14-0.33-0.17c-0.08-0.01-0.17-0.02-0.25-0.03c-0.17,0-0.34,0.04-0.48,0.13c-0.07,0.05-0.13,0.1-0.2,0.15
	c-0.12,0.12-0.2,0.26-0.24,0.42c-0.05,0.11-0.08,0.22-0.11,0.33c-0.05,0.19-0.07,0.39-0.09,0.58c-0.01,0.13,0.02,0.26,0.08,0.37
	c0.04,0.12,0.1,0.22,0.2,0.31c0.08,0.09,0.19,0.16,0.31,0.2c0.11,0.06,0.23,0.09,0.37,0.08c0.08-0.01,0.17-0.02,0.25-0.03
	c0.16-0.05,0.3-0.13,0.42-0.25c0.05-0.07,0.1-0.13,0.15-0.19c0.05-0.09,0.09-0.18,0.11-0.28c0.02-0.21,0.08-0.41,0.15-0.61
	C1314.915,559.85,1314.925,559.73,1314.895,559.6z M1303.765,560.58c0-0.13-0.04-0.24-0.11-0.35c-0.05-0.07-0.1-0.13-0.15-0.2
	c-0.12-0.12-0.26-0.2-0.42-0.25c-0.09-0.01-0.17-0.02-0.26-0.03c-0.17,0-0.33,0.04-0.48,0.13c-0.12,0.07-0.22,0.16-0.32,0.24
	c-0.05,0.04-0.09,0.08-0.14,0.12c-0.04,0.04-0.08,0.09-0.12,0.14c-0.09,0.11-0.18,0.22-0.26,0.34c-0.07,0.11-0.1,0.23-0.11,0.35
	c-0.03,0.13-0.02,0.26,0.02,0.38c0.03,0.13,0.08,0.24,0.17,0.33c0.07,0.11,0.16,0.19,0.27,0.25c0.07,0.03,0.15,0.06,0.23,0.09
	c0.17,0.05,0.34,0.05,0.51,0c0.07-0.03,0.15-0.06,0.22-0.09c0.14-0.08,0.23-0.19,0.32-0.31c0.06-0.09,0.15-0.17,0.24-0.24
	c0.08-0.06,0.15-0.11,0.2-0.19c0.09-0.09,0.15-0.2,0.18-0.33C1303.795,560.84,1303.795,560.71,1303.765,560.58z M1300.805,550.64
	c-0.04-0.17-0.13-0.31-0.25-0.43c-0.06-0.05-0.13-0.1-0.19-0.15c-0.15-0.08-0.31-0.13-0.48-0.13h-0.33c-0.13,0-0.26,0.03-0.37,0.09
	c-0.12,0.03-0.22,0.1-0.31,0.19c-0.09,0.09-0.16,0.19-0.2,0.31c-0.06,0.12-0.08,0.24-0.08,0.37c0.01,0.09,0.02,0.17,0.04,0.26
	c0.04,0.16,0.12,0.3,0.24,0.42c0.07,0.05,0.13,0.1,0.2,0.15c0.15,0.09,0.31,0.13,0.48,0.13h0.33c0.13,0,0.25-0.02,0.37-0.08
	c0.11-0.04,0.22-0.11,0.3-0.2c0.1-0.09,0.16-0.19,0.2-0.31c0.06-0.11,0.09-0.24,0.09-0.37
	C1300.825,550.81,1300.815,550.72,1300.805,550.64z M1283.195,540.44c-1.24,0-1.24,1.92,0,1.92
	C1284.425,542.36,1284.425,540.44,1283.195,540.44z M1293.885,533.18c-0.04-0.12-0.1-0.22-0.2-0.31c-0.08-0.09-0.19-0.16-0.31-0.2
	c-0.11-0.06-0.23-0.09-0.37-0.08c-0.08,0.01-0.17,0.02-0.25,0.03c-0.16,0.05-0.3,0.13-0.42,0.25c-0.05,0.06-0.1,0.13-0.15,0.19
	c-0.09,0.15-0.13,0.31-0.13,0.49v0.16c-0.01,0.13,0.02,0.25,0.08,0.37c0.04,0.12,0.1,0.22,0.2,0.31c0.08,0.09,0.19,0.16,0.31,0.2
	c0.11,0.06,0.23,0.08,0.36,0.08c0.09-0.01,0.17-0.02,0.26-0.04c0.16-0.04,0.3-0.12,0.42-0.24c0.05-0.07,0.1-0.13,0.15-0.2
	c0.09-0.15,0.13-0.31,0.13-0.48v-0.16C1293.975,533.41,1293.945,533.29,1293.885,533.18z M1283.355,531.12c-1.23,0-1.24,1.91,0,1.91
	C1284.585,533.03,1284.595,531.12,1283.355,531.12z M1256.845,540.44c-1.23,0-1.23,1.92,0,1.92S1258.085,540.44,1256.845,540.44z
	 M1274.465,547.36c-0.05-0.16-0.13-0.3-0.25-0.42c-0.07-0.05-0.13-0.1-0.19-0.15c-0.15-0.09-0.32-0.13-0.49-0.13h-0.82
	c-0.13,0-0.25,0.02-0.37,0.08c-0.11,0.04-0.22,0.11-0.3,0.2c-0.1,0.09-0.16,0.19-0.2,0.31c-0.06,0.11-0.09,0.24-0.08,0.37
	c0.01,0.08,0.02,0.17,0.03,0.25c0.05,0.17,0.13,0.31,0.25,0.43c0.06,0.05,0.13,0.1,0.19,0.15c0.15,0.08,0.31,0.13,0.48,0.13h0.82
	c0.13,0,0.26-0.03,0.37-0.09c0.12-0.03,0.22-0.1,0.31-0.19c0.09-0.09,0.16-0.19,0.2-0.31c0.06-0.12,0.08-0.24,0.08-0.37
	C1274.485,547.53,1274.475,547.45,1274.465,547.36z M1261.595,532.75c-1.24,0-1.24,1.92,0,1.92
	C1262.825,534.67,1262.825,532.75,1261.595,532.75z M1265.845,545.35c-1.23,0-1.23,1.92,0,1.92S1267.085,545.35,1265.845,545.35z
	 M1287.285,546.33c-1.24,0-1.24,1.92,0,1.92C1288.515,548.25,1288.515,546.33,1287.285,546.33z M1281.055,558.22
	c0,0,0-0.01-0.01-0.02c-0.05-0.07-0.1-0.13-0.15-0.2c-0.01,0-0.01-0.01-0.01-0.01c-0.01-0.01-0.02-0.02-0.03-0.02
	c-0.07-0.06-0.14-0.12-0.21-0.17c-0.03-0.02-0.05-0.03-0.08-0.05c-0.11-0.07-0.23-0.1-0.36-0.11c-0.12-0.03-0.25-0.02-0.38,0.02
	c-0.12,0.03-0.23,0.08-0.32,0.17c-0.11,0.07-0.19,0.16-0.25,0.27c-0.03,0.07-0.06,0.15-0.1,0.23c-0.03,0.11-0.01,0.22,0,0.32
	c-0.04,0.13-0.04,0.26-0.01,0.39c0,0.12,0.04,0.24,0.11,0.35c0.05,0.07,0.1,0.13,0.15,0.2c0.12,0.12,0.26,0.2,0.42,0.24
	c0.09,0.01,0.17,0.03,0.26,0.04c0.17,0,0.33-0.05,0.48-0.13c0.03-0.02,0.05-0.03,0.08-0.05c0.07-0.05,0.14-0.11,0.21-0.17
	c0.01,0,0.02-0.01,0.02-0.02c0.07-0.06,0.12-0.14,0.17-0.21c0-0.01,0.01-0.02,0.01-0.02s0.08-0.17,0.1-0.25c0.01,0,0.01,0,0.01-0.01
	c0.01-0.08,0.02-0.17,0.03-0.25c0-0.01,0-0.01,0-0.01C1281.195,558.53,1281.145,558.42,1281.055,558.22z M1299.555,544.04
	c-1.23,0-1.24,1.92,0,1.92C1300.785,545.96,1300.785,544.04,1299.555,544.04z M1297.815,565.41c-0.04-0.12-0.11-0.22-0.2-0.31
	c-0.09-0.09-0.19-0.16-0.31-0.19c-0.11-0.06-0.24-0.09-0.37-0.09c-0.08,0.01-0.17,0.03-0.25,0.04c-0.17,0.04-0.31,0.13-0.43,0.24
	c-0.05,0.07-0.1,0.13-0.15,0.2c-0.08,0.15-0.13,0.31-0.13,0.48v0.33c0,0.13,0.03,0.25,0.09,0.37c0.03,0.12,0.1,0.22,0.19,0.31
	c0.09,0.09,0.19,0.16,0.31,0.19c0.12,0.06,0.24,0.09,0.37,0.09c0.09-0.01,0.17-0.03,0.26-0.04c0.16-0.04,0.3-0.12,0.42-0.24
	c0.05-0.07,0.1-0.13,0.15-0.2c0.09-0.15,0.13-0.31,0.13-0.48v-0.33C1297.895,565.65,1297.875,565.53,1297.815,565.41z
	 M1289.465,562.14c-0.04-0.12-0.1-0.22-0.2-0.31c-0.06-0.05-0.13-0.1-0.19-0.15c-0.15-0.09-0.31-0.13-0.48-0.13
	c-0.09,0.01-0.17,0.02-0.26,0.03c-0.02,0.01-0.03,0.01-0.05,0.02c-0.14,0.05-0.26,0.12-0.37,0.23l-0.33,0.33
	c-0.09,0.09-0.16,0.19-0.2,0.31c-0.06,0.11-0.08,0.23-0.08,0.37c0,0.13,0.02,0.25,0.08,0.37c0.04,0.11,0.11,0.22,0.2,0.3
	c0.07,0.05,0.13,0.1,0.2,0.15c0.09,0.06,0.2,0.1,0.31,0.11c0.05,0.02,0.11,0.02,0.17,0.02c0.08-0.01,0.17-0.02,0.25-0.03
	c0.17-0.05,0.31-0.13,0.43-0.25l0.32-0.32c0.1-0.09,0.16-0.19,0.2-0.31c0.06-0.12,0.09-0.24,0.08-0.37
	C1289.555,562.38,1289.525,562.25,1289.465,562.14z M1278.445,548.79c-1.23,0-1.23,1.91,0,1.91S1279.685,548.79,1278.445,548.79z
	 M1289.405,537.33c-1.23,0-1.23,1.92,0,1.92C1290.645,539.25,1290.645,537.33,1289.405,537.33z M1290.715,553.7
	c-1.23,0-1.23,1.91,0,1.91C1291.955,555.61,1291.955,553.7,1290.715,553.7z M1286.035,567.87c-0.04-0.12-0.11-0.22-0.2-0.31
	c-0.09-0.09-0.19-0.16-0.31-0.2c-0.12-0.06-0.24-0.09-0.37-0.08c-0.09,0.01-0.17,0.02-0.26,0.03c-0.16,0.05-0.3,0.13-0.42,0.25
	c-0.05,0.06-0.1,0.13-0.15,0.19c-0.08,0.15-0.13,0.31-0.13,0.49v0.32c0,0.14,0.02,0.26,0.08,0.37c0.04,0.12,0.11,0.22,0.2,0.31
	c0.09,0.09,0.19,0.16,0.31,0.2c0.11,0.06,0.24,0.09,0.37,0.08c0.08-0.01,0.17-0.02,0.25-0.03c0.17-0.05,0.31-0.13,0.43-0.25
	c0.05-0.06,0.1-0.13,0.15-0.19c0.08-0.15,0.13-0.31,0.13-0.49v-0.32C1286.115,568.1,1286.095,567.98,1286.035,567.87z"></path>
  <polygon fill="#98CFF4" points="768.374 926.807 831.846 859.783 1184.391 859.783 1242.454 926.807"></polygon>
  <polygon fill="#C5E5FF" points="793.788 919.148 842.753 867.443 1173.104 867.443 1217.897 919.148"></polygon>
  <path fill="#98CFF4" d="M1152.811,893.295c0,9.05-63.58,16.387-142.011,16.387s-142.011-7.336-142.011-16.387
	c0-9.05,63.581-16.387,142.011-16.387S1152.811,884.245,1152.811,893.295z"></path>
  <rect width="682" height="960" x="681.905" fill="none"></rect>
  <rect width="18.941" height="960" x="672.434" fill="#FFF"></rect>
</svg>
